<?xml version="1.0" standalone="no"?>
<!DOCTYPE svg PUBLIC "-//W3C//DTD SVG 20010904//EN"
 "http://www.w3.org/TR/2001/REC-SVG-20010904/DTD/svg10.dtd">
<svg version="1.0" xmlns="http://www.w3.org/2000/svg"
 width="439.000000pt" height="439.000000pt" viewBox="0 0 439.000000 439.000000"
 preserveAspectRatio="xMidYMid meet">
<metadata>
Created by potrace 1.14, written by Peter Selinger 2001-2017
</metadata>
<g transform="translate(0.000000,439.000000) scale(0.100000,-0.100000)"
fill="#000000" stroke="none">
<path d="M1087 3992 c-8 -10 -69 -109 -137 -222 -68 -113 -213 -353 -323 -535
-110 -181 -239 -395 -287 -475 -49 -80 -140 -230 -204 -335 -64 -104 -121
-201 -126 -214 -9 -21 5 -49 118 -235 387 -634 638 -1048 649 -1068 7 -13 82
-135 165 -273 l153 -250 1094 -2 c790 -2 1098 0 1108 8 11 10 72 105 123 194
32 55 742 1230 765 1265 89 137 205 345 200 357 -3 9 -32 59 -64 112 -32 53
-165 272 -296 486 -130 215 -245 404 -255 420 -9 17 -54 91 -100 165 -46 74
-91 149 -101 167 -10 17 -46 78 -82 135 -35 56 -93 150 -128 208 l-65 105
-1096 2 c-1010 1 -1098 0 -1111 -15z m2194 -52 c9 -14 99 -160 200 -325 100
-165 212 -349 249 -410 37 -60 141 -231 230 -380 90 -148 210 -346 268 -439
57 -94 104 -177 105 -186 1 -14 -55 -114 -129 -230 -23 -38 -275 -454 -296
-492 -7 -12 -17 -27 -21 -32 -4 -6 -31 -50 -60 -99 -29 -48 -103 -172 -165
-275 -263 -434 -374 -618 -382 -632 -7 -12 -152 -14 -1082 -15 l-1073 -1 -89
146 c-48 80 -139 228 -201 330 -278 459 -433 714 -579 955 -87 143 -169 277
-182 298 l-25 38 188 311 c103 171 199 330 213 353 20 34 266 438 301 495 49
80 301 499 328 547 20 34 42 63 50 65 8 2 491 3 1074 3 l1060 0 18 -25z"/>
<path d="M1512 3479 c-235 -28 -445 -200 -491 -400 -31 -134 8 -293 140 -563
23 -48 40 -88 38 -90 -2 -1 -26 -15 -54 -31 -210 -120 -340 -267 -406 -460
-23 -67 -18 -247 9 -327 45 -132 146 -250 259 -303 137 -65 327 -72 488 -18
l89 31 20 -25 c83 -106 207 -134 369 -82 62 20 81 32 139 89 52 52 77 88 115
166 27 54 58 126 70 159 91 256 116 321 126 332 10 9 387 133 394 129 1 -1 4
-39 8 -86 3 -47 8 -98 10 -115 2 -16 7 -61 10 -100 21 -234 62 -400 115 -473
113 -157 382 -149 595 17 73 58 186 175 256 268 l70 91 -42 102 -42 102 -21
-28 c-138 -191 -317 -342 -422 -357 -50 -7 -81 16 -92 70 -16 72 -20 100 -27
188 -3 44 -8 100 -10 125 -2 25 -7 79 -10 120 -7 95 -15 182 -20 240 -2 25 -7
79 -10 120 -3 41 -8 100 -10 130 -2 30 -7 89 -10 130 -3 41 -8 91 -10 110 -2
19 -7 78 -10 130 -4 52 -8 106 -10 120 -2 14 -7 75 -11 135 -3 61 -8 121 -9
135 -2 14 -3 51 -4 82 l-1 57 -37 10 c-50 14 -244 14 -318 0 -33 -6 -75 -18
-94 -27 -41 -20 -24 19 -247 -562 -92 -239 -195 -506 -228 -592 l-61 -156
-117 -59 -116 -58 -6 38 c-12 75 -67 212 -142 356 -258 491 -294 575 -294 670
1 98 63 171 161 189 169 32 290 -65 290 -231 0 -66 -13 -112 -55 -195 -15 -29
-25 -52 -24 -53 2 -1 52 -2 111 -3 l109 -1 20 45 c60 132 80 250 58 355 -52
255 -288 392 -608 354z m1243 -646 c2 -15 6 -73 10 -128 4 -55 8 -107 10 -115
2 -9 6 -60 10 -115 3 -55 8 -114 10 -132 l5 -31 -141 -47 c-77 -26 -142 -45
-143 -44 -5 6 227 649 232 645 2 -2 5 -17 7 -33z m-1379 -743 c76 -150 104
-232 105 -314 2 -127 -48 -210 -146 -241 -126 -39 -252 15 -317 137 -19 36
-23 58 -23 138 0 115 23 174 104 262 55 60 177 149 200 145 7 -1 42 -58 77
-127z m575 -451 c-60 -144 -85 -179 -125 -179 -44 0 -45 13 -5 80 36 58 69
144 69 176 0 15 114 87 118 75 1 -5 -24 -73 -57 -152z"/>
</g>
</svg>
